# xmcd
#
# Track frame offsets:
#	150
#	16125
#	36076
#	51994
#	71432
#	95603
#	109510
#	123862
#	137527
#	153597
#	170058
#	187529
#	201000
#	215505
#	231959
#	247324
#
# Disc length: 3518 seconds
#
# Revision: 1
# Processed by: cddbd v1.5.2PL0 Copyright (c) Steve Scherf et al.
# Submitted via: audiograbber 1.83.01
#
DISCID=da0dbc10
DTITLE=Os Serranos - Inverno Serrano
DYEAR=2015
DGENRE=Gauchesca
TTITLE0=Batendo Caco
TTITLE1=Bailes Dos Serranos
TTITLE2=Meu Cavalo, Meu Amigo
TTITLE3=Abraço Eterno
TTITLE4=Um Grito a Gildo de Freitas
TTITLE5=Na Levada do Fole
TTITLE6=Inverno Serrano
TTITLE7=Domador Apaixonado
TTITLE8=Canarinho
TTITLE9=Pra Escutar Minhas Vaneiras Lá Fora
TTITLE10=Vaneira do Tio Niva
TTITLE11=Meu Laço
TTITLE12=Domador Por Vocação
TTITLE13=Rodeio do Peito
TTITLE14=Alma no Arreio
TTITLE15=Nalgum Fundão de Invernada
EXTD=
EXTT0=
EXTT1=
EXTT2=
EXTT3=
EXTT4=
EXTT5=
EXTT6=
EXTT7=
EXTT8=
EXTT9=
EXTT10=
EXTT11=
EXTT12=
EXTT13=
EXTT14=
EXTT15=
PLAYORDER=
